<?xml version="1.0" encoding="iso-8859-1"?>
<!-- Generator: Adobe Illustrator 19.0.0, SVG Export Plug-In . SVG Version: 6.00 Build 0)  -->
<svg version="1.1" id="Layer_1" xmlns="http://www.w3.org/2000/svg" xmlns:xlink="http://www.w3.org/1999/xlink" x="0px" y="0px"
	 viewBox="0 0 511.999 511.999" style="enable-background:new 0 0 511.999 511.999;" xml:space="preserve">
<path style="fill:#FF911F;" d="M456.608,351.647h-0.015c-0.188-19.582-16.693-35.401-37.036-35.401l0.031,34.177
	c0,19.168,16.983,34.505,37.008,34.505c20.032,0,37.043-15.38,37.043-34.505v-34.177
	C473.301,316.245,456.798,332.064,456.608,351.647z"/>
<path style="fill:#FFAE18;" d="M478.226,321.778c-6.391-13.079-21.628-26.495-21.628-26.495s-16.195,9.446-21.628,26.495
	l21.624,29.868L478.226,321.778z"/>
<path style="fill:#8C239B;" d="M364.843,274.039h-0.014c-0.188-19.582-16.693-35.401-37.036-35.401l0.031,34.177
	c0,19.168,16.983,34.505,37.008,34.505c20.032,0,37.043-15.38,37.043-34.505v-34.177
	C381.537,238.637,365.034,254.457,364.843,274.039z"/>
<path style="fill:#DD5ED7;" d="M386.462,244.171c-6.391-13.079-21.628-26.495-21.628-26.495s-16.195,9.446-21.628,26.495
	l21.624,29.868L386.462,244.171z"/>
<path style="fill:#0F8EE3;" d="M273.08,396.468h-0.015c-0.188-19.582-16.693-35.401-37.036-35.401l0.031,34.177
	c0,19.168,16.983,34.505,37.008,34.505c20.032,0,37.043-15.38,37.043-34.505v-34.177C289.774,361.067,273.27,376.885,273.08,396.468
	z"/>
<path style="fill:#27B5F7;" d="M294.699,366.599c-6.391-13.079-21.628-26.495-21.628-26.495s-16.195,9.446-21.628,26.495
	l21.624,29.868L294.699,366.599z"/>
<g>
	<path style="fill:#7DCE09;" d="M148.295,501.551c9.94-9.253,16.165-22.443,16.165-37.094c0-27.989-22.689-50.678-50.678-50.678
		c-21.931,0-40.606,13.934-47.662,33.429c-5.725-3.948-12.66-6.264-20.139-6.264c-19.621,0-35.527,15.905-35.527,35.527
		c0,9.79,3.96,18.654,10.365,25.08L148.295,501.551L148.295,501.551z"/>
	<path style="fill:#7DCE09;" d="M493.385,501.551c5.095-6.08,8.166-13.913,8.166-22.465c0-19.333-15.671-35.004-35.004-35.004
		c-0.695,0-1.383,0.026-2.069,0.066c-7.829-17.875-25.667-30.368-46.431-30.368c-22.423,0-41.432,14.569-48.11,34.753
		c-5.053-2.831-10.875-4.451-17.08-4.451c-19.333,0-35.004,15.671-35.004,35.004c0,8.552,3.071,16.385,8.166,22.465H493.385z"/>
</g>
<path style="fill:#FFAE18;" d="M128.819,268.694c0-10.738,8.569-19.433,19.237-19.731c-7.332-7.759-7.243-19.962,0.35-27.557
	c7.593-7.591,19.796-7.682,27.556-0.35c0.298-10.668,8.992-19.237,19.731-19.237c10.738,0,19.433,8.568,19.731,19.237
	c7.759-7.332,19.962-7.241,27.556,0.35c7.592,7.595,7.683,19.798,0.35,27.557c10.667,0.298,19.237,8.992,19.237,19.731
	c0,10.74-8.569,19.434-19.237,19.73c7.332,7.76,7.241,19.962-0.35,27.557c-7.593,7.593-19.797,7.683-27.556,0.351
	c-0.298,10.667-8.992,19.236-19.731,19.236c-10.738,0-19.433-8.568-19.731-19.236c-7.76,7.332-19.962,7.241-27.556-0.351
	c-7.593-7.594-7.683-19.796-0.35-27.557C137.388,288.129,128.819,279.434,128.819,268.694z"/>
<circle style="fill:#FF3131;" cx="195.69" cy="268.821" r="19.853"/>
<path style="fill:#FFAE18;" d="M479.759,109.839c13.234-10.12,21.777-26.063,21.777-44.01c0-30.585-24.794-55.38-55.38-55.38
	c-27.391,0-50.121,19.889-54.574,46.01c0,0,26.716,2.741,46.389,36.618C467.572,94.563,479.759,109.839,479.759,109.839z"/>
<g>
	<path style="fill:#27B5F7;" d="M491.527,141.67c0-26.939-21.781-48.853-48.556-48.853c-1.672,0-3.34,0.093-4.999,0.26
		c-8.42-22.137-29.63-37.089-53.674-37.089c-24.046,0-45.253,14.952-53.673,37.089c-1.66-0.167-3.327-0.26-5.002-0.26
		c-26.771,0-48.552,21.915-48.552,48.853H491.527z"/>
	<path style="fill:#27B5F7;" d="M149.95,66.182c0-17.523-14.168-31.777-31.584-31.777c-1.088,0-2.172,0.061-3.252,0.169
		c-5.476-14.399-19.273-24.125-34.913-24.125c-15.641,0-29.436,9.726-34.913,24.125c-1.079-0.109-2.164-0.169-3.254-0.169
		c-17.414,0-31.581,14.254-31.581,31.777C10.453,66.182,149.95,66.182,149.95,66.182z"/>
</g>
<path style="fill:#CE1128;" d="M55.369,365.436h-0.015c-0.188-19.582-16.693-35.401-37.036-35.401l0.031,34.177
	c0,19.168,16.983,34.505,37.008,34.505c20.032,0,37.043-15.38,37.043-34.505v-34.177C72.061,330.035,55.558,345.855,55.369,365.436z
	"/>
<path style="fill:#FF3131;" d="M76.988,335.568c-6.391-13.079-21.628-26.495-21.628-26.495s-16.195,9.446-21.628,26.495
	l21.624,29.868L76.988,335.568z"/>
<path d="M470.956,433.845c-1.192-2.06-2.501-4.029-3.907-5.915v-33.666c21.175-4.52,37.043-22.455,37.043-43.844v-34.177
	c0-5.771-4.678-10.449-10.449-10.449c-4.34,0-8.545,0.59-12.549,1.666c-7.463-12.108-17.602-20.058-18.089-20.435
	c-3.769-2.924-9.039-2.923-12.808,0c-0.487,0.377-10.627,8.327-18.089,20.434c-4.003-1.075-8.207-1.665-12.547-1.665
	c-2.773,0-5.432,1.102-7.392,3.064c-1.96,1.961-3.059,4.622-3.057,7.395l0.031,34.166c0,21.386,15.853,39.319,37.008,43.842v15.923
	c-8.519-4.415-18.115-6.856-28.104-6.856c-16.4,0-31.604,6.497-42.763,17.422V316.655c21.175-4.519,37.043-22.455,37.043-43.844
	v-34.177c0-5.771-4.678-10.449-10.449-10.449c-4.341,0-8.545,0.59-12.548,1.666c-7.463-12.108-17.603-20.058-18.09-20.435
	c-3.769-2.924-9.039-2.923-12.808,0c-0.487,0.377-10.627,8.326-18.088,20.434c-4.003-1.075-8.208-1.666-12.547-1.666
	c-2.773,0-5.432,1.102-7.392,3.064c-1.96,1.961-3.059,4.622-3.057,7.395l0.031,34.167c0,21.386,15.852,39.319,37.008,43.842v117.026
	c-0.51-0.018-1.018-0.049-1.529-0.049c-25.063,0-45.453,20.39-45.453,45.453c0,10.654,3.767,21.015,10.606,29.177
	c1.985,2.37,4.918,3.738,8.009,3.738h167.365c3.091,0,6.024-1.369,8.009-3.738c6.839-8.162,10.606-18.523,10.606-29.177
	C512,455.51,493.958,436.068,470.956,433.845z M456.599,309.647c1.928,2.1,4.027,4.664,5.919,7.546
	c-2.146,1.82-4.133,3.813-5.915,5.975c-1.784-2.163-3.772-4.157-5.919-5.977C452.574,314.308,454.673,311.745,456.599,309.647z
	 M430.04,350.411l-0.02-21.666c9.385,3.853,16.028,12.712,16.127,23.001c0.055,5.731,4.717,10.349,10.449,10.349h0.015
	c5.731,0,10.393-4.616,10.449-10.348c0.099-10.293,6.746-19.156,16.134-23.007v21.68c0,13.039-12.178,24.056-26.594,24.056
	C442.202,374.477,430.04,363.46,430.04,350.411z M364.834,232.039c1.928,2.1,4.027,4.664,5.918,7.547
	c-2.145,1.819-4.133,3.813-5.915,5.974c-1.784-2.163-3.772-4.157-5.919-5.977C360.81,236.701,362.908,234.138,364.834,232.039z
	 M338.276,272.804l-0.02-21.666c9.385,3.853,16.028,12.712,16.127,23.001c0.055,5.731,4.717,10.349,10.449,10.349h0.014
	c5.731,0,10.393-4.616,10.449-10.348c0.1-10.292,6.746-19.156,16.135-23.007v21.681c0,13.039-12.178,24.056-26.594,24.056
	C350.438,296.869,338.276,285.853,338.276,272.804z M487.957,491.102H331.446c-2.046-3.648-3.144-7.79-3.144-12.016
	c0-13.54,11.015-24.555,24.555-24.555c4.191,0,8.331,1.078,11.972,3.119c2.721,1.523,5.982,1.752,8.888,0.625
	c2.908-1.13,5.159-3.498,6.139-6.459c5.46-16.501,20.807-27.587,38.19-27.587c15.975,0,30.444,9.465,36.86,24.112
	c1.753,4.003,5.811,6.507,10.177,6.238c0.484-0.028,0.971-0.048,1.462-0.048c13.54,0,24.555,11.015,24.555,24.555
	C491.102,483.312,490.003,487.454,487.957,491.102z"/>
<path d="M216.623,152.119h60.447c5.771,0,10.449-4.678,10.449-10.449c0-21.176,17.092-38.404,38.103-38.404
	c1.258,0,2.588,0.07,3.954,0.208c4.7,0.472,9.134-2.265,10.815-6.682c6.906-18.156,24.551-30.354,43.908-30.354
	c19.358,0,37.003,12.198,43.908,30.354c1.68,4.417,6.12,7.151,10.815,6.682c1.365-0.138,2.694-0.208,3.951-0.208
	c17.419,0,32.147,11.841,36.674,27.955h-124.27c-5.771,0-10.449,4.678-10.449,10.449s4.678,10.449,10.449,10.449h136.151
	c5.771,0,10.449-4.678,10.449-10.449c0-11.067-3.032-21.433-8.305-30.308c11.728-12.175,18.314-28.289,18.314-45.534
	C511.985,29.531,482.454,0,446.156,0c-28.997,0-54.006,18.677-62.631,45.553c-25.115,0.292-48.128,14.749-59.551,36.838
	c-28.25,0.784-51.604,21.625-56.436,48.83h-50.916c-5.771,0-10.449,4.678-10.449,10.449S210.852,152.119,216.623,152.119z
	 M446.156,20.898c24.775,0,44.931,20.156,44.931,44.931c0,11.103-4.006,21.52-11.184,29.645
	c-9.719-7.864-21.949-12.712-35.282-13.082c-8.364-16.177-22.949-28.26-40.021-33.686C411.374,32.141,427.564,20.898,446.156,20.898
	z"/>
<path d="M10.453,76.631c5.771,0,10.449-4.678,10.449-10.449c0-11.76,9.48-21.328,21.133-21.328c0.694,0,1.437,0.04,2.208,0.117
	c4.699,0.479,9.132-2.265,10.813-6.682c3.956-10.402,14.061-17.39,25.145-17.39s21.191,6.988,25.147,17.391
	c1.679,4.415,6.11,7.157,10.813,6.682c0.77-0.077,1.512-0.117,2.206-0.117c7.895,0,14.793,4.391,18.42,10.879H61.388
	c-5.771,0-10.449,4.678-10.449,10.449s4.678,10.449,10.449,10.449h88.562c5.771,0,10.449-4.678,10.449-10.449
	c0-22.169-17.09-40.401-38.731-42.098C113.236,9.43,97.384,0,80.201,0C63.018,0,47.166,9.43,38.735,24.085
	C17.095,25.781,0.004,44.014,0.004,66.182C0.004,71.953,4.682,76.631,10.453,76.631z"/>
<path d="M323.343,131.221c-5.771,0-10.449,4.678-10.449,10.449c0,5.771,4.678,10.449,10.449,10.449h0.163
	c5.771,0,10.449-4.678,10.449-10.449s-4.678-10.449-10.449-10.449C323.506,131.221,323.343,131.221,323.343,131.221z"/>
<path d="M183.186,152.119h0.163c5.771,0,10.449-4.678,10.449-10.449s-4.678-10.449-10.449-10.449h-0.163
	c-5.771,0-10.449,4.678-10.449,10.449S177.415,152.119,183.186,152.119z"/>
<path d="M225.993,268.82c0-16.709-13.593-30.302-30.301-30.302c-16.709,0-30.303,13.593-30.303,30.302s13.594,30.302,30.303,30.302
	C212.4,299.122,225.993,285.528,225.993,268.82z M186.287,268.82c0-5.185,4.219-9.404,9.405-9.404c5.185,0,9.403,4.219,9.403,9.404
	s-4.218,9.404-9.403,9.404C190.505,278.224,186.287,274.005,186.287,268.82z"/>
<path d="M302.378,472.244c-4.08-4.081-10.697-4.079-14.777,0l-4.082,4.082v-37.14c21.175-4.52,37.043-22.455,37.043-43.844v-34.177
	c0-5.771-4.678-10.449-10.449-10.449c-4.34,0-8.545,0.59-12.549,1.666c-7.463-12.108-17.602-20.058-18.089-20.435
	c-3.769-2.924-9.039-2.923-12.808,0c-0.487,0.377-10.628,8.327-18.089,20.434c-4.003-1.075-8.207-1.666-12.547-1.666
	c-2.773,0-5.432,1.102-7.392,3.064c-1.96,1.961-3.059,4.622-3.057,7.395l0.031,34.166c0,21.386,15.852,39.319,37.008,43.842v37.141
	l-4.081-4.081c-4.08-4.08-10.697-4.08-14.778,0c-4.08,4.08-4.08,10.697,0,14.778l4.081,4.081h-41.703V344.173
	c6.532-2.383,11.991-6.936,15.498-12.838c9.966,2.534,20.901-0.138,28.729-7.966c7.824-7.827,10.496-18.76,7.962-28.725
	c8.842-5.252,14.684-14.874,14.684-25.948c0-11.073-5.842-20.695-14.684-25.948c2.534-9.965-0.138-20.899-7.964-28.728
	c-7.827-7.826-18.76-10.499-28.727-7.963c-5.253-8.841-14.874-14.683-25.947-14.683s-20.695,5.843-25.948,14.684
	c-9.968-2.535-20.899,0.137-28.728,7.963c-7.826,7.828-10.499,18.761-7.963,28.727c-8.841,5.253-14.683,14.874-14.683,25.948
	c0,11.075,5.841,20.696,14.683,25.948c-2.535,9.967,0.138,20.9,7.964,28.727c7.826,7.826,18.759,10.499,28.727,7.963
	c3.507,5.902,8.966,10.455,15.499,12.839v146.929h-16.49c3.995-8.24,6.154-17.349,6.154-26.645
	c0-33.705-27.421-61.127-61.127-61.127c-18.986,0-36.575,8.876-47.974,23.266v-18.542c21.175-4.52,37.043-22.455,37.043-43.844
	v-34.177c0-5.771-4.678-10.449-10.449-10.449c-4.341,0-8.545,0.59-12.549,1.666c-7.463-12.108-17.602-20.058-18.089-20.435
	c-3.769-2.924-9.039-2.923-12.808,0c-0.487,0.377-10.627,8.327-18.089,20.434c-4.003-1.075-8.207-1.665-12.547-1.665
	c-2.773,0-5.432,1.102-7.392,3.064c-1.96,1.961-3.059,4.622-3.057,7.395l0.031,34.166c0,21.386,15.853,39.319,37.008,43.842v22.471
	c-24.857,0.573-44.906,20.956-44.906,45.948c0,12.251,4.765,23.778,13.414,32.457c1.96,1.966,4.624,3.072,7.401,3.072h274.171
	c5.771,0,10.449-4.678,10.449-10.449c0-4.766-3.194-8.779-7.557-10.034l4.496-4.495C306.459,482.94,306.459,476.324,302.378,472.244
	z M179.962,306.68c-1.293-0.536-2.651-0.797-3.999-0.797c-2.62,0-5.2,0.986-7.177,2.854c-3.704,3.5-9.411,3.437-12.991-0.144
	c-3.581-3.581-3.645-9.288-0.145-12.992c2.83-2.995,3.635-7.372,2.057-11.177c-1.578-3.806-5.244-6.329-9.362-6.444
	c-5.09-0.141-9.077-4.22-9.077-9.285s3.987-9.144,9.078-9.286c4.118-0.115,7.785-2.638,9.361-6.444s0.771-8.184-2.058-11.177
	c-3.499-3.703-3.436-9.409,0.144-12.99c3.581-3.582,9.289-3.644,12.992-0.144c2.994,2.83,7.371,3.634,11.177,2.057
	c3.806-1.577,6.329-5.243,6.444-9.36c0.142-5.092,4.221-9.079,9.286-9.079s9.143,3.987,9.286,9.079
	c0.115,4.118,2.638,7.784,6.445,9.361c3.804,1.577,8.183,0.771,11.177-2.058c3.703-3.5,9.409-3.436,12.989,0.143
	c3.581,3.583,3.646,9.29,0.146,12.992c-2.83,2.995-3.635,7.372-2.058,11.177c1.578,3.805,5.244,6.33,9.361,6.444
	c5.092,0.142,9.079,4.221,9.079,9.286c0,5.066-3.987,9.144-9.078,9.285c-4.118,0.114-7.784,2.637-9.362,6.444
	c-1.578,3.806-0.772,8.184,2.057,11.177c3.499,3.704,3.436,9.411-0.144,12.992c-3.581,3.581-9.287,3.644-12.991,0.145
	c-2.995-2.83-7.371-3.634-11.177-2.058c-3.806,1.578-6.33,5.243-6.444,9.361c-0.142,5.091-4.221,9.078-9.286,9.078
	s-9.144-3.987-9.286-9.078C186.291,311.924,183.768,308.257,179.962,306.68z M273.07,354.568c1.928,2.1,4.027,4.664,5.918,7.546
	c-2.145,1.819-4.133,3.813-5.915,5.974c-1.784-2.162-3.772-4.157-5.919-5.977C269.045,359.23,271.144,356.667,273.07,354.568z
	 M246.511,395.332l-0.02-21.666c9.385,3.853,16.028,12.712,16.127,23.001c0.055,5.731,4.717,10.349,10.449,10.349h0.015
	c5.731,0,10.393-4.616,10.449-10.348c0.099-10.293,6.746-19.156,16.134-23.007v21.68c0,13.039-12.178,24.056-26.594,24.056
	C258.673,419.397,246.511,408.381,246.511,395.332z M55.358,323.438c1.928,2.1,4.027,4.664,5.919,7.546
	c-2.146,1.82-4.133,3.813-5.915,5.975c-1.784-2.163-3.772-4.157-5.919-5.977C51.333,328.099,53.432,325.536,55.358,323.438z
	 M28.799,364.201l-0.02-21.666c9.385,3.853,16.028,12.712,16.127,23.001c0.055,5.731,4.717,10.349,10.449,10.349h0.015
	c5.731,0,10.393-4.616,10.449-10.348c0.099-10.293,6.746-19.156,16.134-23.007v21.68c0,13.039-12.178,24.056-26.594,24.056
	C40.962,388.266,28.799,377.251,28.799,364.201z M25.607,491.102c-3.056-4.236-4.704-9.308-4.704-14.63
	c0-13.827,11.249-25.078,25.078-25.078c5.104,0,10.017,1.528,14.209,4.417c2.667,1.838,6.033,2.337,9.119,1.349
	c3.085-0.987,5.536-3.35,6.638-6.395c5.744-15.873,20.95-26.537,37.836-26.537c22.182,0,40.229,18.046,40.229,40.229
	c0,9.97-3.558,19.294-10.096,26.645H25.607z"/>
<g>
</g>
<g>
</g>
<g>
</g>
<g>
</g>
<g>
</g>
<g>
</g>
<g>
</g>
<g>
</g>
<g>
</g>
<g>
</g>
<g>
</g>
<g>
</g>
<g>
</g>
<g>
</g>
<g>
</g>
</svg>
